<svg id="Réteg_1" data-name="Réteg 1" xmlns="http://www.w3.org/2000/svg" viewBox="0 0 190.45 134.19"><defs><style>.cls-1,.cls-2{stroke:#000;stroke-width:5px;}.cls-2{fill:none;}</style></defs><path d="M185,1.29H10.58a8,8,0,0,0-8,8V127.48a8,8,0,0,0,8,8H185a8,8,0,0,0,8-8V9.29A8,8,0,0,0,185,1.29Zm-116,9.59H175.58a3,3,0,1,1,0,6H69.06a3,3,0,0,1,0-6Zm-32.23,0a3.64,3.64,0,1,1-3.64,3.64A3.64,3.64,0,0,1,36.83,10.85Zm-9,0a3.64,3.64,0,1,1-3.64,3.64A3.64,3.64,0,0,1,27.83,10.85Zm-9,0a3.64,3.64,0,1,1-3.64,3.64A3.64,3.64,0,0,1,18.83,10.85ZM183,124.65H12.13V22.19H183Z" transform="translate(-2.58 -1.29)"/><line class="cls-1" x1="23.48" y1="99.66" x2="48.71" y2="74.44"/><line class="cls-2" x1="47.06" y1="72.52" x2="71.52" y2="96.97"/><line class="cls-2" x1="90.45" y1="75.8" x2="68.65" y2="97.6"/><line class="cls-2" x1="101" y1="87.16" x2="88.29" y2="74.45"/><line class="cls-2" x1="130.49" y1="56.32" x2="98.58" y2="88.23"/><polygon points="118.64 49.84 143.68 43.13 136.97 68.17 118.64 49.84"/></svg>