<svg id="Réteg_1" data-name="Réteg 1" xmlns="http://www.w3.org/2000/svg" viewBox="0 0 442.01 215.32"><defs><style>.cls-1,.cls-2,.cls-3{stroke:#000;}.cls-1,.cls-2{stroke-width:5px;}.cls-2{fill:none;}.cls-3{stroke-miterlimit:10;}</style></defs><path d="M198.45,169.68H24a8,8,0,0,0-8,8V295.87a8,8,0,0,0,8,8H198.45a8,8,0,0,0,8-8V177.68A8,8,0,0,0,198.45,169.68Zm-116,9.59H189a3,3,0,0,1,0,6H82.48a3,3,0,1,1,0-6Zm-32.23,0a3.64,3.64,0,1,1-3.64,3.64A3.64,3.64,0,0,1,50.25,179.24Zm-9,0a3.64,3.64,0,1,1-3.64,3.64A3.64,3.64,0,0,1,41.25,179.24Zm-9,0a3.64,3.64,0,1,1-3.64,3.64A3.64,3.64,0,0,1,32.25,179.24ZM196.39,293H25.55V190.58H196.39Z" transform="translate(-16 -135.29)"/><line class="cls-1" x1="23.48" y1="134.05" x2="48.71" y2="108.82"/><line class="cls-2" x1="47.06" y1="106.9" x2="71.52" y2="131.35"/><line class="cls-2" x1="90.45" y1="110.19" x2="68.65" y2="131.99"/><line class="cls-2" x1="101" y1="121.55" x2="88.29" y2="108.84"/><line class="cls-2" x1="130.49" y1="90.71" x2="98.58" y2="122.61"/><polygon points="118.64 84.22 143.68 77.52 136.97 102.56 118.64 84.22"/><rect x="206.17" width="5.33" height="215.32"/><polygon points="358.55 45.45 358.5 45.39 358.43 45.45 358.31 45.45 358.31 45.56 335.62 65.5 312.97 45.5 312.97 45.45 296.03 45.45 296.03 96.35 312.97 96.35 312.97 63.8 335.64 83.82 335.64 83.87 335.67 83.85 335.77 83.94 335.76 83.76 358.31 63.86 358.31 96.36 375.25 96.36 375.25 45.45 358.55 45.45"/><path d="M302.71,194.39h0a14,14,0,0,0-14-14H246.39v51.45h42.32a13.93,13.93,0,0,0,14-13.85h0a11.8,11.8,0,0,0-11.87-11.73A11.88,11.88,0,0,0,302.71,194.39Zm-20.36,27.19H262.26v-9.89h20.09a4.95,4.95,0,1,1,0,9.89Zm-20.09-30.82h20.09a5,5,0,0,1,0,10H262.26Z" transform="translate(-16 -135.29)"/><path d="M456.71,194.39h0a14,14,0,0,0-14-14H400.39v51.45h42.32a13.93,13.93,0,0,0,14-13.85h0a11.8,11.8,0,0,0-11.87-11.73A11.88,11.88,0,0,0,456.71,194.39Zm-20.36,27.19H416.26v-9.89h20.09a4.95,4.95,0,1,1,0,9.89Zm-20.09-30.82h20.09a5,5,0,0,1,0,10H416.26Z" transform="translate(-16 -135.29)"/><polyline class="cls-3" points="253.42 132.19 257.5 136.27 261.47 132.12 261.58 132 279.33 114.25 279.33 156.81 285.24 156.81 285.24 105.91 279.33 105.91 257.41 127.83 235.49 105.91 229.59 105.91 229.59 156.81 235.49 156.81 235.49 114.25 253.24 132"/><path class="cls-3" d="M277.59,267.47" transform="translate(-16 -135.29)"/><path class="cls-3" d="M273.41,271.65" transform="translate(-16 -135.29)"/><path class="cls-3" d="M343,278.38l-2.93,0a13.52,13.52,0,0,1-12.19,8.11c-7.27,0-13.19-6.07-13.56-13.71h33.5l0,0a20,20,0,1,0-1,5.64Zm-15.12-20.85A13.77,13.77,0,0,1,341,268.26H314.73A13.77,13.77,0,0,1,327.85,257.53Z" transform="translate(-16 -135.29)"/><path class="cls-3" d="M389.68,240.12v22.09a19.54,19.54,0,1,0,0,20.64l0,9.22H396V240.12Zm-15,46.41A14.26,14.26,0,1,1,389,272.27,14.26,14.26,0,0,1,374.72,286.53Z" transform="translate(-16 -135.29)"/><rect class="cls-3" x="386.84" y="120.06" width="6.46" height="36.73"/><path class="cls-3" d="M406.07,248.84a3.85,3.85,0,1,0-3.84-3.85A3.85,3.85,0,0,0,406.07,248.84Z" transform="translate(-16 -135.29)"/><path class="cls-3" d="M451.17,253.68v8.53a19.54,19.54,0,1,0,0,20.64v9.22h6.33V253.68Zm-15,32.85a14.26,14.26,0,1,1,14.26-14.26A14.27,14.27,0,0,1,436.2,286.53Z" transform="translate(-16 -135.29)"/></svg>